PathFileType	4	(X/Y/Z)	c:\Git\powerlifing_model_clean\simulations\HC835B\Session1\HC835B_STD_0001\marker_experimental.trc
DataRate	CameraRate	NumFrames	NumMarkers	Units	OrigDataRate	OrigDataStartFrame	OrigNumFrames
240.000000	240.000000	4	48	mm	240.000000	126	337
Frame#	Time	RPSI			LPSI			RASI			LASI			RGT			RTH1			RTH2			RTH3			RTH4			RLK			RMK			RSK1			RSK2			RSK3			RSK4			RLA			RMA			RCAL1			RCAL2			RCAL3			RST			RPT			RTN			RFMB			RSMB			RVMB			RFMH			RSMH			RVMH			RPM			LGT			LTH1			LTH2			LTH3			LTH4			LLK			LMK			LSK1			LSK2			LSK3			LSK4			LLA			LMA			LCAL1			LCAL2			LCAL3			LFMH			LVMH			
		X1	Y1	Z1	X2	Y2	Z2	X3	Y3	Z3	X4	Y4	Z4	X5	Y5	Z5	X6	Y6	Z6	X7	Y7	Z7	X8	Y8	Z8	X9	Y9	Z9	X10	Y10	Z10	X11	Y11	Z11	X12	Y12	Z12	X13	Y13	Z13	X14	Y14	Z14	X15	Y15	Z15	X16	Y16	Z16	X17	Y17	Z17	X18	Y18	Z18	X19	Y19	Z19	X20	Y20	Z20	X21	Y21	Z21	X22	Y22	Z22	X23	Y23	Z23	X24	Y24	Z24	X25	Y25	Z25	X26	Y26	Z26	X27	Y27	Z27	X28	Y28	Z28	X29	Y29	Z29	X30	Y30	Z30	X31	Y31	Z31	X32	Y32	Z32	X33	Y33	Z33	X34	Y34	Z34	X35	Y35	Z35	X36	Y36	Z36	X37	Y37	Z37	X38	Y38	Z38	X39	Y39	Z39	X40	Y40	Z40	X41	Y41	Z41	X42	Y42	Z42	X43	Y43	Z43	X44	Y44	Z44	X45	Y45	Z45	X46	Y46	Z46	X47	Y47	Z47	X48	Y48	Z48	

127	0.525	494.8232421875001	1162.24853515625	-354.5833740234376	386.417938232422	1159.684814453125	-350.9205932617188	554.7774658203126	1105.387084960938	-558.6090698242189	315.6163635253907	1100.96875	-556.2353515625001	636.9967041015626	1023.877014160156	-450.0963439941407	639.3864746093751	836.333679199219	-461.3558654785157	627.3372192382814	819.4372558593752	-518.5085449218751	629.6948852539064	753.5675048828126	-476.3650207519532	606.3888549804689	737.4631958007814	-527.6538696289064	609.0559082031251	552.7235717773439	-458.2342224121095	483.3857727050782	538.5733032226564	-447.7955017089845	612.9519653320314	307.3532409667969	-361.0701293945313	614.9395751953126	287.9176940917969	-419.4524230957032	611.3317260742189	249.5357055664063	-372.2361450195313	600.3060302734376	231.7621154785157	-428.2239074707032	605.2797851562501	114.7262115478516	-359.3650207519532	521.9941406250001	124.2841415405274	-404.3172912597657	560.3093872070314	95.53344726562501	-304.8077087402344	528.7370605468751	58.204158782959	-314.3835754394532	592.8021850585939	58.82700347900392	-308.8052978515626	517.3275146484376	76.24368286132814	-380.6505432128907	618.4073486328126	72.28037261962892	-367.0732116699219	530.4206542968751	94.48757934570314	-438.3380126953126	536.9966430664064	78.13533020019533	-469.4436645507814	586.2522583007814	101.827262878418	-477.4609680175782	632.3125000000001	47.74964904785157	-410.2098083496095	537.3717041015626	50.6442222595215	-527.2997436523439	592.0014648437501	65.82126617431642	-537.5283813476564	648.2277221679689	42.2628402709961	-490.5836791992189	582.5855712890626	53.29274368286134	-596.8616333007814	244.5136108398438	1012.982177734375	-444.7479858398439	238.9277038574219	830.8035888671877	-444.3183593750001	242.0866241455079	813.6838378906252	-502.5623168945314	243.0126647949219	746.2081909179689	-457.6734619140626	263.0049743652344	730.9400024414064	-513.5532226562501	265.6519775390626	564.1123657226564	-442.3744506835939	396.6441345214845	553.6022949218751	-443.3672180175782	257.2707519531251	300.1286621093751	-354.5387573242188	251.3081512451172	279.1371459960938	-403.3268432617189	257.1712951660157	244.9232635498047	-368.0093994140626	267.5783081054688	225.5825805664063	-420.1319885253907	259.3414001464844	115.4095916748047	-363.1770324707032	349.4308776855469	123.6989364624024	-400.6890258789064	306.5993957519532	94.77397918701173	-303.2683410644532	275.8128967285157	58.19541168212892	-303.4720153808594	334.1359558105469	56.41275024414064	-307.9554748535157	344.7021789550782	55.2283172607422	-530.6514282226564	229.760726928711	41.53195190429688	-493.0008850097657	
128	0.5291666666666667	494.8309020996095	1162.2412109375	-354.6231079101563	386.3882446289064	1159.685302734375	-350.9626770019532	554.7440795898439	1105.39208984375	-558.6613159179689	315.5743713378907	1100.990234375	-556.2822265625001	637.0015869140626	1023.885559082031	-450.1336059570314	639.3744506835939	836.3166503906252	-461.3728332519532	627.2954711914064	819.4429931640627	-518.5149536132814	629.6918334960939	753.5720825195314	-476.3641967773439	606.3695678710939	737.4304809570314	-527.6569213867189	609.0522460937501	552.7333984375001	-458.230682373047	483.3955993652345	538.5915527343751	-447.7830810546876	612.9462280273439	307.3238525390626	-361.0643920898438	614.9114990234376	287.9035949707032	-419.4774780273439	611.3380737304689	249.5574645996094	-372.2397766113282	600.2835083007814	231.7568664550782	-428.2404174804689	605.3460083007814	114.6593933105469	-359.4419250488282	521.9394531250001	124.1899337768555	-404.2907104492189	560.3314208984376	95.55480957031251	-304.8234252929688	528.7322998046876	58.23374557495119	-314.3586730957032	592.8272094726564	58.83893966674806	-308.8099365234376	517.3591918945314	76.2213821411133	-380.6288452148438	618.3909301757814	72.28121948242189	-367.0590515136719	530.4293212890626	94.47332000732423	-438.3429565429689	536.9933471679689	78.10055541992189	-469.413787841797	586.2574462890626	101.8264923095703	-477.467987060547	632.2189331054689	47.68395614624024	-410.2282714843751	537.2883300781251	50.73651504516603	-527.3246459960939	591.9970092773439	65.78927612304689	-537.5301513671876	648.2299804687501	42.29870223999024	-490.5816345214845	582.5799560546876	53.29012680053712	-596.8676757812501	244.5136718750001	1012.9833984375	-444.7329406738282	238.8963470458985	830.817321777344	-444.3427734375001	242.0859375000001	813.6799316406252	-502.5781250000001	243.0237579345704	746.2080078125001	-457.696746826172	263.0443725585938	730.9207763671876	-513.5477294921876	265.6376647949219	564.1151733398439	-442.3818359375001	396.6236877441407	553.5897216796876	-443.3699035644532	257.2799987792969	300.1291503906251	-354.5400695800782	251.3152923583985	279.1091003417969	-403.345184326172	257.1524353027344	244.8795166015626	-368.0160522460938	267.5210266113282	225.6117095947266	-420.133514404297	259.3541259765626	115.3850936889649	-363.2190856933594	349.4282226562501	123.7129516601563	-400.6712646484376	306.6173095703126	94.81884765625001	-303.2417602539063	275.7986450195313	58.18910598754884	-303.4977416992188	334.1150207519532	56.4036102294922	-307.9430236816407	344.7073364257813	55.24132919311525	-530.6603393554689	229.7390594482422	41.51622772216798	-492.986541748047	
129	0.5333333333333333	494.8280334472657	1162.26123046875	-354.6716918945313	386.378387451172	1159.6953125	-351.0079040527344	554.7056274414064	1105.389282226563	-558.7083740234376	315.5867919921876	1100.986083984375	-556.3274536132814	636.9947509765626	1023.909606933594	-450.1794433593751	639.3596191406251	836.3273925781252	-461.3812561035157	627.2952880859376	819.4653930664065	-518.5410156250001	629.6693725585939	753.5583496093751	-476.391326904297	606.3512573242189	737.4478149414064	-527.6643066406251	609.0418701171876	552.7171630859376	-458.2298889160157	483.3722534179689	538.5784301757814	-447.810760498047	612.9573364257814	307.3465270996094	-361.0687255859376	614.9026489257814	287.9037170410157	-419.4593811035157	611.3419799804689	249.5636901855469	-372.2135620117188	600.3049316406251	231.7899322509766	-428.2330322265626	605.3085327148439	114.6892929077149	-359.4159851074219	521.9541015625001	124.1626434326172	-404.2932128906251	560.3164062500001	95.55551147460939	-304.8163452148438	528.7288208007814	58.19715499877931	-314.3713378906251	592.9122314453126	58.84784317016603	-308.7813720703126	517.3306884765626	76.26119995117189	-380.6850280761719	618.2534179687501	72.20554351806642	-367.1286315917969	530.4349365234376	94.47030639648439	-438.3150634765626	537.0021362304689	78.12327575683595	-469.469451904297	586.2738647460939	101.8366241455078	-477.4746093750001	632.3147583007814	47.73909378051759	-410.2203369140626	537.3233032226564	50.71652603149415	-527.3333740234376	592.0154418945314	65.81467437744142	-537.5242309570314	648.2496948242189	42.29518127441407	-490.6009521484376	582.5808715820314	53.27452087402345	-596.8506469726564	244.5011138916016	1012.987243652344	-444.7615966796876	238.8949890136719	830.8065185546877	-444.3714294433595	242.0861816406251	813.6531372070315	-502.6139221191407	243.0037384033204	746.2299804687501	-457.7316284179689	263.0227966308594	730.9184570312501	-513.5627441406251	265.6236877441407	564.1381225585939	-442.3866271972657	396.6275329589845	553.6058349609376	-443.3716735839845	257.2849426269532	300.1624145507813	-354.5685729980469	251.2955932617188	279.0978698730469	-403.291717529297	257.1748657226563	244.8686523437501	-368.0267028808594	267.5290832519532	225.6291809082032	-420.1239624023439	259.3532714843751	115.414909362793	-363.2090759277344	349.4136047363282	123.7244110107422	-400.6734008789064	306.5908813476563	94.81748199462892	-303.2529907226563	275.7664794921876	58.19730377197267	-303.4789428710938	334.1403808593751	56.4181251525879	-307.9331970214844	344.6868591308594	55.23121643066408	-530.6417846679689	229.7357025146485	41.51883697509766	-493.0071105957032	
130	0.5375	494.814666748047	1162.295288085938	-354.7003479003907	386.3839111328126	1159.705932617188	-351.0704956054688	554.7039184570314	1105.396728515625	-558.7402954101564	315.5605468750001	1100.982666015625	-556.3591308593751	636.9580688476564	1023.902404785156	-450.2204589843751	639.3240356445314	836.3403930664065	-461.3934631347657	627.2746582031251	819.462585449219	-518.5569458007814	629.6579589843751	753.5727539062501	-476.389129638672	606.3172607421876	737.4531250000001	-527.6936035156251	609.0351562500001	552.7444458007814	-458.2257080078126	483.3872375488282	538.5823364257814	-447.8158264160157	612.9526367187501	307.3562622070313	-361.0744018554688	614.9061889648439	287.9086303710938	-419.4698486328126	611.3084106445314	249.5535736083985	-372.2415161132813	600.2692260742189	231.7760162353516	-428.2257385253907	605.2728881835939	114.7180557250977	-359.3521423339844	522.0083618164064	124.2833633422852	-404.3072814941407	560.3166503906251	95.5658645629883	-304.8201904296876	528.7145385742189	58.21458816528322	-314.3870849609376	592.9058227539064	58.8558807373047	-308.7857666015626	517.3424682617189	76.22910308837892	-380.6939086914063	618.2442626953126	72.18328857421876	-367.1351013183594	530.4117431640626	94.48919677734376	-438.3525390625001	536.9963378906251	78.12734985351564	-469.4439697265626	586.2012939453126	101.7512359619141	-477.4576110839845	632.2128906250001	47.69836425781251	-410.2177124023439	537.2808837890626	50.73087692260744	-527.2991943359376	591.9990234375001	65.82127380371095	-537.5205688476564	648.2446899414064	42.29804229736329	-490.578338623047	582.5743408203126	53.29756546020509	-596.8715209960939	244.5123138427735	1012.975891113281	-444.777313232422	238.891586303711	830.8259887695315	-444.3967285156251	242.0603179931641	813.6514892578127	-502.6123352050782	243.0450134277344	746.1712036132814	-457.7381591796876	263.0236206054688	730.9028320312501	-513.5822143554689	265.6169738769532	564.1273803710939	-442.379119873047	396.6208496093751	553.6026000976564	-443.3873901367189	257.2974243164063	300.1849060058594	-354.5637817382813	251.3128051757813	279.1132202148438	-403.2988281250001	257.1396789550782	244.8835449218751	-368.0141296386719	267.5297851562501	225.6707458496094	-420.1562805175782	259.3364257812501	115.3795623779297	-363.2104187011719	349.4359130859376	123.714958190918	-400.706268310547	306.6063842773438	94.80152893066408	-303.2736206054688	275.7954406738282	58.20204925537111	-303.4715270996094	334.1390380859376	56.4252052307129	-307.9427185058594	344.6885375976563	55.23928833007814	-530.6613159179689	229.7567749023438	41.49678039550782	-492.999725341797	
